<svg xmlns="http://www.w3.org/2000/svg" viewBox="0 0 206 74" fill="none">
  <path transform="translate(2,72)" fill="#080808" d="M12.70 0L12.70-60L1.20-60L1.20-70L35.20-70L35.20-60L23.70-60L23.70 0L12.70 0ZM40.50 0L40.50-70L70.50-70L70.50-60L51.50-60L51.50-41.50L66.60-41.50L66.60-31.50L51.50-31.50L51.50-10L70.50-10L70.50 0L40.50 0ZM76.80 0L76.80-70L92.50-70L99.50-19.90L99.70-19.90L106.70-70L122.40-70L122.40 0L112 0L112-53L111.80-53L103.80 0L94.60 0L86.60-53L86.40-53L86.40 0L76.80 0ZM130.60 0L130.60-70L146.80-70Q155-70 159.10-65.60Q163.20-61.20 163.20-52.70L163.20-52.70L163.20-45.80Q163.20-37.30 159.10-32.90Q155-28.50 146.80-28.50L146.80-28.50L141.60-28.50L141.60 0L130.60 0ZM141.60-38.50L146.80-38.50Q149.50-38.50 150.85-40Q152.20-41.50 152.20-45.10L152.20-45.10L152.20-53.40Q152.20-57 150.85-58.50Q149.50-60 146.80-60L146.80-60L141.60-60L141.60-38.50ZM185.10 1Q177 1 172.70-3.60Q168.40-8.20 168.40-16.60L168.40-16.60L168.40-53.40Q168.40-61.80 172.70-66.40Q177-71 185.10-71L185.10-71Q193.20-71 197.50-66.40Q201.80-61.80 201.80-53.40L201.80-53.40L201.80-16.60Q201.80-8.20 197.50-3.60Q193.20 1 185.10 1L185.10 1ZM185.10-9Q190.80-9 190.80-15.90L190.80-15.90L190.80-54.10Q190.80-61 185.10-61L185.10-61Q179.40-61 179.40-54.10L179.40-54.10L179.40-15.90Q179.40-9 185.10-9L185.10-9Z"></path>
</svg>