<svg xmlns="http://www.w3.org/2000/svg" viewBox="0 0 302 74" fill="none">
  <path transform="translate(2,72)" fill="#F5F5F5" d="M12.70 0L12.70-60L1.20-60L1.20-70L35.20-70L35.20-60L23.70-60L23.70 0L12.70 0ZM40.50 0L40.50-70L70.50-70L70.50-60L51.50-60L51.50-41.50L66.60-41.50L66.60-31.50L51.50-31.50L51.50-10L70.50-10L70.50 0L40.50 0ZM76.80 0L76.80-70L92.50-70L99.50-19.90L99.70-19.90L106.70-70L122.40-70L122.40 0L112 0L112-53L111.80-53L103.80 0L94.60 0L86.60-53L86.40-53L86.40 0L76.80 0ZM130.60 0L130.60-70L146.80-70Q155-70 159.10-65.60Q163.20-61.20 163.20-52.70L163.20-52.70L163.20-45.80Q163.20-37.30 159.10-32.90Q155-28.50 146.80-28.50L146.80-28.50L141.60-28.50L141.60 0L130.60 0ZM141.60-38.50L146.80-38.50Q149.50-38.50 150.85-40Q152.20-41.50 152.20-45.10L152.20-45.10L152.20-53.40Q152.20-57 150.85-58.50Q149.50-60 146.80-60L146.80-60L141.60-60L141.60-38.50ZM185.10 1Q177 1 172.70-3.60Q168.40-8.20 168.40-16.60L168.40-16.60L168.40-53.40Q168.40-61.80 172.70-66.40Q177-71 185.10-71L185.10-71Q193.20-71 197.50-66.40Q201.80-61.80 201.80-53.40L201.80-53.40L201.80-16.60Q201.80-8.20 197.50-3.60Q193.20 1 185.10 1L185.10 1ZM185.10-9Q190.80-9 190.80-15.90L190.80-15.90L190.80-54.10Q190.80-61 185.10-61L185.10-61Q179.40-61 179.40-54.10L179.40-54.10L179.40-15.90Q179.40-9 185.10-9L185.10-9Z"></path>
  <path transform="translate(223.1,72)" fill="#FF6B35" d="M20 1Q11.90 1 7.60-3.60Q3.30-8.20 3.30-16.60L3.30-16.60L3.30-53.40Q3.30-61.80 7.60-66.40Q11.90-71 20-71L20-71Q28.10-71 32.40-66.40Q36.70-61.80 36.70-53.40L36.70-53.40L36.70-16.60Q36.70-8.20 32.40-3.60Q28.10 1 20 1L20 1ZM20-9Q25.70-9 25.70-15.90L25.70-15.90L25.70-54.10Q25.70-61 20-61L20-61Q14.30-61 14.30-54.10L14.30-54.10L14.30-15.90Q14.30-9 20-9L20-9ZM58.40 1Q50.40 1 46.30-3.55Q42.20-8.10 42.20-16.60L42.20-16.60L42.20-20.60L52.60-20.60L52.60-15.80Q52.60-9 58.30-9L58.30-9Q61.10-9 62.55-10.65Q64-12.30 64-16L64-16Q64-20.40 62-23.75Q60-27.10 54.60-31.80L54.60-31.80Q47.80-37.80 45.10-42.65Q42.40-47.50 42.40-53.60L42.40-53.60Q42.40-61.90 46.60-66.45Q50.80-71 58.80-71L58.80-71Q66.70-71 70.75-66.45Q74.80-61.90 74.80-53.40L74.80-53.40L74.80-50.50L64.40-50.50L64.40-54.10Q64.40-57.70 63-59.35Q61.60-61 58.90-61L58.90-61Q53.40-61 53.40-54.30L53.40-54.30Q53.40-50.50 55.45-47.20Q57.50-43.90 62.90-39.20L62.90-39.20Q69.80-33.20 72.40-28.30Q75-23.40 75-16.80L75-16.80Q75-8.20 70.75-3.60Q66.50 1 58.40 1L58.40 1Z"></path>
</svg>