<svg xmlns="http://www.w3.org/2000/svg" viewBox="0 0 300 250" fill="none">
  <g transform="translate(92,6) scale(1.16)">
    <path d="M22 86 L37 22 L63 22 L78 86 Z" stroke="#FF6B35" stroke-width="5" stroke-linejoin="round"></path>
    <g transform="rotate(8 50 80)">
      <line x1="50" y1="80" x2="50" y2="8" stroke="#FF6B35" stroke-width="5" stroke-linecap="round"></line>
      <rect x="42" y="43.6" width="16" height="6.8" rx="1.4" fill="#FF6B35"></rect>
      <circle cx="50" cy="8" r="4.6" fill="#FF6B35"></circle>
    </g>
  </g>
  <path transform="translate(18.75,207.6) scale(0.88)" fill="#F5F5F5" d="M12.70 0L12.70-60L1.20-60L1.20-70L35.20-70L35.20-60L23.70-60L23.70 0L12.70 0ZM40.50 0L40.50-70L70.50-70L70.50-60L51.50-60L51.50-41.50L66.60-41.50L66.60-31.50L51.50-31.50L51.50-10L70.50-10L70.50 0L40.50 0ZM76.80 0L76.80-70L92.50-70L99.50-19.90L99.70-19.90L106.70-70L122.40-70L122.40 0L112 0L112-53L111.80-53L103.80 0L94.60 0L86.60-53L86.40-53L86.40 0L76.80 0ZM130.60 0L130.60-70L146.80-70Q155-70 159.10-65.60Q163.20-61.20 163.20-52.70L163.20-52.70L163.20-45.80Q163.20-37.30 159.10-32.90Q155-28.50 146.80-28.50L146.80-28.50L141.60-28.50L141.60 0L130.60 0ZM141.60-38.50L146.80-38.50Q149.50-38.50 150.85-40Q152.20-41.50 152.20-45.10L152.20-45.10L152.20-53.40Q152.20-57 150.85-58.50Q149.50-60 146.80-60L146.80-60L141.60-60L141.60-38.50ZM185.10 1Q177 1 172.70-3.60Q168.40-8.20 168.40-16.60L168.40-16.60L168.40-53.40Q168.40-61.80 172.70-66.40Q177-71 185.10-71L185.10-71Q193.20-71 197.50-66.40Q201.80-61.80 201.80-53.40L201.80-53.40L201.80-16.60Q201.80-8.20 197.50-3.60Q193.20 1 185.10 1L185.10 1ZM185.10-9Q190.80-9 190.80-15.90L190.80-15.90L190.80-54.10Q190.80-61 185.10-61L185.10-61Q179.40-61 179.40-54.10L179.40-54.10L179.40-15.90Q179.40-9 185.10-9L185.10-9Z"></path>
  <path transform="translate(213.32,207.6) scale(0.88)" fill="#FF6B35" d="M20 1Q11.90 1 7.60-3.60Q3.30-8.20 3.30-16.60L3.30-16.60L3.30-53.40Q3.30-61.80 7.60-66.40Q11.90-71 20-71L20-71Q28.10-71 32.40-66.40Q36.70-61.80 36.70-53.40L36.70-53.40L36.70-16.60Q36.70-8.20 32.40-3.60Q28.10 1 20 1L20 1ZM20-9Q25.70-9 25.70-15.90L25.70-15.90L25.70-54.10Q25.70-61 20-61L20-61Q14.30-61 14.30-54.10L14.30-54.10L14.30-15.90Q14.30-9 20-9L20-9ZM58.40 1Q50.40 1 46.30-3.55Q42.20-8.10 42.20-16.60L42.20-16.60L42.20-20.60L52.60-20.60L52.60-15.80Q52.60-9 58.30-9L58.30-9Q61.10-9 62.55-10.65Q64-12.30 64-16L64-16Q64-20.40 62-23.75Q60-27.10 54.60-31.80L54.60-31.80Q47.80-37.80 45.10-42.65Q42.40-47.50 42.40-53.60L42.40-53.60Q42.40-61.90 46.60-66.45Q50.80-71 58.80-71L58.80-71Q66.70-71 70.75-66.45Q74.80-61.90 74.80-53.40L74.80-53.40L74.80-50.50L64.40-50.50L64.40-54.10Q64.40-57.70 63-59.35Q61.60-61 58.90-61L58.90-61Q53.40-61 53.40-54.30L53.40-54.30Q53.40-50.50 55.45-47.20Q57.50-43.90 62.90-39.20L62.90-39.20Q69.80-33.20 72.40-28.30Q75-23.40 75-16.80L75-16.80Q75-8.20 70.75-3.60Q66.50 1 58.40 1L58.40 1Z"></path>
  <path transform="translate(18.75,241.7) scale(0.1716)" fill="#8A8A8A" d="M32 1.40L32 1.40Q23 1.40 16.90-1.95Q10.80-5.30 7.65-11.10Q4.50-16.90 4.50-24.20L4.50-24.20L4.50-27.20L12.90-27.20L12.90-24.80Q12.90-15.70 18-11.05Q23.10-6.40 32-6.40L32-6.40Q39.80-6.40 43.75-9.90Q47.70-13.40 47.70-19L47.70-19L47.70-19.60Q47.70-25.10 43.65-28Q39.60-30.90 30.50-32.20L30.50-32.20Q20-33.70 13.75-38.15Q7.50-42.60 7.50-51.60L7.50-51.60L7.50-52.80Q7.50-58.30 10.45-62.45Q13.40-66.60 18.60-69Q23.80-71.40 30.60-71.40L30.60-71.40Q38.50-71.40 44.05-68.50Q49.60-65.60 52.55-60.85Q55.50-56.10 55.50-50.40L55.50-50.40L55.50-46.20L47.10-46.20L47.10-49.80Q47.10-54.40 44.80-57.45Q42.50-60.50 38.70-62.05Q34.90-63.60 30.50-63.60L30.50-63.60Q26.70-63.60 23.35-62.30Q20-61 17.95-58.55Q15.90-56.10 15.90-52.50L15.90-52.50L15.90-51.90Q15.90-46.10 20.60-43.45Q25.30-40.80 34.70-39.40L34.70-39.40Q45.70-37.80 50.90-33Q56.10-28.20 56.10-20.20L56.10-20.20L56.10-19Q56.10-9.90 49.95-4.25Q43.80 1.40 32 1.40ZM114 0L69.60 0L69.60-7.80L87.60-7.80L87.60-62.20L69.60-62.20L69.60-70L114-70L114-62.20L96-62.20L96-7.80L114-7.80L114 0ZM154.40 1.40L154.40 1.40Q145.40 1.40 139.30-1.95Q133.20-5.30 130.05-11.10Q126.90-16.90 126.90-24.20L126.90-24.20L126.90-27.20L135.30-27.20L135.30-24.80Q135.30-15.70 140.40-11.05Q145.50-6.40 154.40-6.40L154.40-6.40Q162.20-6.40 166.15-9.90Q170.10-13.40 170.10-19L170.10-19L170.10-19.60Q170.10-25.10 166.05-28Q162-30.90 152.90-32.20L152.90-32.20Q142.40-33.70 136.15-38.15Q129.90-42.60 129.90-51.60L129.90-51.60L129.90-52.80Q129.90-58.30 132.85-62.45Q135.80-66.60 141-69Q146.20-71.40 153-71.40L153-71.40Q160.90-71.40 166.45-68.50Q172-65.60 174.95-60.85Q177.90-56.10 177.90-50.40L177.90-50.40L177.90-46.20L169.50-46.20L169.50-49.80Q169.50-54.40 167.20-57.45Q164.90-60.50 161.10-62.05Q157.30-63.60 152.90-63.60L152.90-63.60Q149.10-63.60 145.75-62.30Q142.40-61 140.35-58.55Q138.30-56.10 138.30-52.50L138.30-52.50L138.30-51.90Q138.30-46.10 143-43.45Q147.70-40.80 157.10-39.40L157.10-39.40Q168.10-37.80 173.30-33Q178.50-28.20 178.50-20.20L178.50-20.20L178.50-19Q178.50-9.90 172.35-4.25Q166.20 1.40 154.40 1.40ZM218.40 0L210.00 0L210.00-62.20L189.60-62.20L189.60-70L238.80-70L238.80-62.20L218.40-62.20L218.40 0ZM297.20 0L254.20 0L254.20-70L296.60-70L296.60-62.20L262.60-62.20L262.60-39L296-39L296-31.20L262.60-31.20L262.60-7.80L297.20-7.80L297.20 0ZM318.40 0L310.60 0L310.60-70L326.60-70L336-3.60L337.20-3.60L346.60-70L362.60-70L362.60 0L354.80 0L354.80-66.40L353.60-66.40L344.20 0L329 0L319.60-66.40L318.40-66.40L318.40 0ZM377.70 0L368.70 0L389.90-70L405.70-70L426.90 0L417.90 0L412.80-17.40L382.80-17.40L377.70 0ZM397.20-66.40L385.10-25.20L410.50-25.20L398.40-66.40L397.20-66.40ZM520.20 1.40L520.20 1.40Q508.70 1.40 502.15-5.95Q495.60-13.30 495.60-27.20L495.60-27.20L495.60-42.80Q495.60-56.30 502.15-63.85Q508.70-71.40 520.20-71.40L520.20-71.40Q531.80-71.40 538.30-63.85Q544.80-56.30 544.80-42.80L544.80-42.80L544.80-27.20Q544.80-13.30 538.30-5.95Q531.80 1.40 520.20 1.40ZM520.20-6.40L520.20-6.40Q528.30-6.40 532.35-12Q536.40-17.60 536.40-27.80L536.40-27.80L536.40-42.20Q536.40-51.80 532.35-57.70Q528.30-63.60 520.20-63.60L520.20-63.60Q512.10-63.60 508.05-57.70Q504.00-51.80 504.00-42.20L504.00-42.20L504.00-27.80Q504.00-17.60 508.05-12Q512.10-6.40 520.20-6.40ZM567.70 0L559.30 0L559.30-70L584.30-70Q591.50-70 596.25-67.35Q601-64.70 603.35-60.40Q605.70-56.10 605.70-51L605.70-51L605.70-48Q605.70-42.90 603.30-38.50Q600.90-34.10 596.15-31.45Q591.40-28.80 584.30-28.80L584.30-28.80L567.70-28.80L567.70 0ZM567.70-62.20L567.70-36.60L583.30-36.60Q597.30-36.60 597.30-48.60L597.30-48.60L597.30-50.40Q597.30-55.70 593.85-58.95Q590.40-62.20 583.30-62.20L583.30-62.20L567.70-62.20ZM664.40 0L621.40 0L621.40-70L663.80-70L663.80-62.20L629.80-62.20L629.80-39L663.20-39L663.20-31.20L629.80-31.20L629.80-7.80L664.40-7.80L664.40 0ZM690.10 0L681.70 0L681.70-70L706.70-70Q713.90-70 718.65-67.35Q723.40-64.70 725.75-60.40Q728.10-56.10 728.10-51L728.10-51L728.10-48Q728.10-44.10 725.95-40.20Q723.80-36.30 719.30-34.20L719.30-34.20L719.30-33Q722.30-32.60 724-30.65Q725.70-28.70 725.70-25.20L725.70-25.20L725.70 0L717.30 0L717.30-23.40Q717.30-26 716.10-27.40Q714.90-28.80 711.90-28.80L711.90-28.80L690.10-28.80L690.10 0ZM690.10-62.20L690.10-36.60L705.70-36.60Q719.70-36.60 719.70-48.60L719.70-48.60L719.70-50.40Q719.70-55.70 716.25-58.95Q712.80-62.20 705.70-62.20L705.70-62.20L690.10-62.20ZM744.90 0L735.90 0L757.10-70L772.90-70L794.10 0L785.10 0L780.00-17.40L750.00-17.40L744.90 0ZM764.40-66.40L752.30-25.20L777.70-25.20L765.60-66.40L764.40-66.40ZM830.40 0L822.00 0L822.00-62.20L801.60-62.20L801.60-70L850.80-70L850.80-62.20L830.40-62.20L830.40 0ZM909.60 0L865.20 0L865.20-7.80L883.20-7.80L883.20-62.20L865.20-62.20L865.20-70L909.60-70L909.60-62.20L891.60-62.20L891.60-7.80L909.60-7.80L909.60 0ZM956.70 0L940.50 0L920.70-70L929.70-70L948.00-3.60L949.20-3.60L967.50-70L976.50-70L956.70 0ZM1009.80 1.40L1009.80 1.40Q998.30 1.40 991.75-5.95Q985.20-13.30 985.20-27.20L985.20-27.20L985.20-42.80Q985.20-56.30 991.75-63.85Q998.30-71.40 1009.80-71.40L1009.80-71.40Q1021.40-71.40 1027.90-63.85Q1034.40-56.30 1034.40-42.80L1034.40-42.80L1034.40-27.20Q1034.40-13.30 1027.90-5.95Q1021.40 1.40 1009.80 1.40ZM1009.80-6.40L1009.80-6.40Q1017.90-6.40 1021.95-12Q1026.00-17.60 1026.00-27.80L1026.00-27.80L1026.00-42.20Q1026.00-51.80 1021.95-57.70Q1017.90-63.60 1009.80-63.60L1009.80-63.60Q1001.70-63.60 997.65-57.70Q993.60-51.80 993.60-42.20L993.60-42.20L993.60-27.80Q993.60-17.60 997.65-12Q1001.70-6.40 1009.80-6.40ZM1114.00 0L1106.20 0L1106.20-70L1122.20-70L1131.60-3.60L1132.80-3.60L1142.20-70L1158.20-70L1158.20 0L1150.40 0L1150.40-66.40L1149.20-66.40L1139.80 0L1124.60 0L1115.20-66.40L1114.00-66.40L1114.00 0ZM1193.40 1.40L1193.40 1.40Q1182.30 1.40 1175.85-5.05Q1169.40-11.50 1169.40-23.60L1169.40-23.60L1169.40-70L1177.80-70L1177.80-23.60Q1177.80-15.20 1181.80-10.80Q1185.80-6.40 1193.40-6.40L1193.40-6.40Q1201.10-6.40 1205.05-10.80Q1209.00-15.20 1209.00-23.60L1209.00-23.60L1209.00-70L1217.40-70L1217.40-23.60Q1217.40-11.50 1210.95-5.05Q1204.50 1.40 1193.40 1.40ZM1256.00 1.40L1256.00 1.40Q1247.00 1.40 1240.90-1.95Q1234.80-5.30 1231.65-11.10Q1228.50-16.90 1228.50-24.20L1228.50-24.20L1228.50-27.20L1236.90-27.20L1236.90-24.80Q1236.90-15.70 1242.00-11.05Q1247.10-6.40 1256.00-6.40L1256.00-6.40Q1263.80-6.40 1267.75-9.90Q1271.70-13.40 1271.70-19L1271.70-19L1271.70-19.60Q1271.70-25.10 1267.65-28Q1263.60-30.90 1254.50-32.20L1254.50-32.20Q1244.00-33.70 1237.75-38.15Q1231.50-42.60 1231.50-51.60L1231.50-51.60L1231.50-52.80Q1231.50-58.30 1234.45-62.45Q1237.40-66.60 1242.60-69Q1247.80-71.40 1254.60-71.40L1254.60-71.40Q1262.50-71.40 1268.05-68.50Q1273.60-65.60 1276.55-60.85Q1279.50-56.10 1279.50-50.40L1279.50-50.40L1279.50-46.20L1271.10-46.20L1271.10-49.80Q1271.10-54.40 1268.80-57.45Q1266.50-60.50 1262.70-62.05Q1258.90-63.60 1254.50-63.60L1254.50-63.60Q1250.70-63.60 1247.35-62.30Q1244.00-61 1241.95-58.55Q1239.90-56.10 1239.90-52.50L1239.90-52.50L1239.90-51.90Q1239.90-46.10 1244.60-43.45Q1249.30-40.80 1258.70-39.40L1258.70-39.40Q1269.70-37.80 1274.90-33Q1280.10-28.20 1280.10-20.20L1280.10-20.20L1280.10-19Q1280.10-9.90 1273.95-4.25Q1267.80 1.40 1256.00 1.40ZM1338.00 0L1293.60 0L1293.60-7.80L1311.60-7.80L1311.60-62.20L1293.60-62.20L1293.60-70L1338.00-70L1338.00-62.20L1320.00-62.20L1320.00-7.80L1338.00-7.80L1338.00 0ZM1377.40 1.40L1377.40 1.40Q1365.90 1.40 1359.35-5.95Q1352.80-13.30 1352.80-27.20L1352.80-27.20L1352.80-42.80Q1352.80-56.30 1359.35-63.85Q1365.90-71.40 1377.40-71.40L1377.40-71.40Q1385.40-71.40 1390.90-68Q1396.40-64.60 1399.20-58.85Q1402.00-53.10 1402.00-46L1402.00-46L1402.00-44.80L1393.60-44.80L1393.60-46Q1393.50-50.60 1391.85-54.60Q1390.20-58.60 1386.65-61.10Q1383.10-63.60 1377.40-63.60L1377.40-63.60Q1369.30-63.60 1365.25-57.70Q1361.20-51.80 1361.20-42.20L1361.20-42.20L1361.20-27.80Q1361.20-17.60 1365.25-12Q1369.30-6.40 1377.40-6.40L1377.40-6.40Q1383.10-6.40 1386.70-8.90Q1390.30-11.40 1391.95-15.40Q1393.60-19.40 1393.60-24L1393.60-24L1393.60-25.20L1402.00-25.20L1402.00-24Q1402.00-16.90 1399.20-11.15Q1396.40-5.40 1390.90-2Q1385.40 1.40 1377.40 1.40ZM1418.10 0L1409.10 0L1430.30-70L1446.10-70L1467.30 0L1458.30 0L1453.20-17.40L1423.20-17.40L1418.10 0ZM1437.60-66.40L1425.50-25.20L1450.90-25.20L1438.80-66.40L1437.60-66.40ZM1522.50 0L1477.50 0L1477.50-70L1485.90-70L1485.90-7.80L1522.50-7.80L1522.50 0Z"></path>
</svg>